<mxfile host="app.diagrams.net" agent="Mozilla/5.0 (Windows NT 10.0; Win64; x64) AppleWebKit/537.36 (KHTML, like Gecko) Chrome/131.0.0.0 Safari/537.36" version="25.0.1">
  <diagram name="Page-1" id="ZsKMaB4A17dZ3ItfQEax">
    <mxGraphModel dx="1900" dy="530" grid="1" gridSize="10" guides="1" tooltips="1" connect="1" arrows="1" fold="1" page="1" pageScale="1" pageWidth="850" pageHeight="1100" math="0" shadow="0">
      <root>
        <mxCell id="0" />
        <mxCell id="1" parent="0" />
        <mxCell id="FFNAdtqXyO2KNYmjo27n-3" value="" style="ellipse;whiteSpace=wrap;html=1;" parent="1" vertex="1">
          <mxGeometry x="-300" y="200" width="140" height="90" as="geometry" />
        </mxCell>
        <mxCell id="FFNAdtqXyO2KNYmjo27n-1" value="B8GU52 Etterem" style="ellipse;whiteSpace=wrap;html=1;" parent="1" vertex="1">
          <mxGeometry x="1480" width="120" height="80" as="geometry" />
        </mxCell>
        <mxCell id="FFNAdtqXyO2KNYmjo27n-2" value="Termekek" style="ellipse;whiteSpace=wrap;html=1;" parent="1" vertex="1">
          <mxGeometry x="-290" y="205" width="120" height="80" as="geometry" />
        </mxCell>
        <mxCell id="FFNAdtqXyO2KNYmjo27n-4" value="" style="ellipse;whiteSpace=wrap;html=1;" parent="1" vertex="1">
          <mxGeometry x="-300" y="330" width="140" height="90" as="geometry" />
        </mxCell>
        <mxCell id="FFNAdtqXyO2KNYmjo27n-5" value="Alapanyag" style="ellipse;whiteSpace=wrap;html=1;" parent="1" vertex="1">
          <mxGeometry x="-290" y="335" width="120" height="80" as="geometry" />
        </mxCell>
        <mxCell id="FFNAdtqXyO2KNYmjo27n-7" value="Tipus" style="ellipse;whiteSpace=wrap;html=1;" parent="1" vertex="1">
          <mxGeometry x="-125" y="330" width="120" height="80" as="geometry" />
        </mxCell>
        <mxCell id="FFNAdtqXyO2KNYmjo27n-8" value="Nev" style="ellipse;whiteSpace=wrap;html=1;" parent="1" vertex="1">
          <mxGeometry x="-460" y="335" width="120" height="80" as="geometry" />
        </mxCell>
        <mxCell id="FFNAdtqXyO2KNYmjo27n-9" value="ID" style="rhombus;whiteSpace=wrap;html=1;" parent="1" vertex="1">
          <mxGeometry x="-590" y="335" width="80" height="80" as="geometry" />
        </mxCell>
        <mxCell id="FFNAdtqXyO2KNYmjo27n-10" value="" style="rounded=0;whiteSpace=wrap;html=1;" parent="1" vertex="1">
          <mxGeometry x="-425" y="470" width="50" height="80" as="geometry" />
        </mxCell>
        <mxCell id="FFNAdtqXyO2KNYmjo27n-11" value="" style="rounded=0;whiteSpace=wrap;html=1;" parent="1" vertex="1">
          <mxGeometry x="-255" y="470" width="50" height="80" as="geometry" />
        </mxCell>
        <mxCell id="FFNAdtqXyO2KNYmjo27n-12" value="" style="rounded=0;whiteSpace=wrap;html=1;" parent="1" vertex="1">
          <mxGeometry x="-90" y="470" width="50" height="80" as="geometry" />
        </mxCell>
        <mxCell id="FFNAdtqXyO2KNYmjo27n-13" value="" style="ellipse;whiteSpace=wrap;html=1;" parent="1" vertex="1">
          <mxGeometry x="210" y="200" width="140" height="90" as="geometry" />
        </mxCell>
        <mxCell id="FFNAdtqXyO2KNYmjo27n-14" value="Termek" style="ellipse;whiteSpace=wrap;html=1;" parent="1" vertex="1">
          <mxGeometry x="220" y="205" width="120" height="80" as="geometry" />
        </mxCell>
        <mxCell id="FFNAdtqXyO2KNYmjo27n-15" value="Termekek_ID" style="rhombus;whiteSpace=wrap;html=1;" parent="1" vertex="1">
          <mxGeometry x="90" y="335" width="80" height="80" as="geometry" />
        </mxCell>
        <mxCell id="FFNAdtqXyO2KNYmjo27n-16" value="Rendeles_ID" style="rhombus;whiteSpace=wrap;html=1;" parent="1" vertex="1">
          <mxGeometry x="210" y="335" width="80" height="80" as="geometry" />
        </mxCell>
        <mxCell id="FFNAdtqXyO2KNYmjo27n-17" value="Ár" style="ellipse;whiteSpace=wrap;html=1;" parent="1" vertex="1">
          <mxGeometry x="330" y="335" width="120" height="80" as="geometry" />
        </mxCell>
        <mxCell id="FFNAdtqXyO2KNYmjo27n-18" value="" style="ellipse;whiteSpace=wrap;html=1;" parent="1" vertex="1">
          <mxGeometry x="840" y="200" width="140" height="90" as="geometry" />
        </mxCell>
        <mxCell id="FFNAdtqXyO2KNYmjo27n-19" value="Alkalmazott" style="ellipse;whiteSpace=wrap;html=1;" parent="1" vertex="1">
          <mxGeometry x="850" y="205" width="120" height="80" as="geometry" />
        </mxCell>
        <mxCell id="FFNAdtqXyO2KNYmjo27n-20" value="ID" style="rhombus;whiteSpace=wrap;html=1;" parent="1" vertex="1">
          <mxGeometry x="580" y="335" width="80" height="80" as="geometry" />
        </mxCell>
        <mxCell id="FFNAdtqXyO2KNYmjo27n-21" value="Nev" style="ellipse;whiteSpace=wrap;html=1;" parent="1" vertex="1">
          <mxGeometry x="720" y="335" width="120" height="80" as="geometry" />
        </mxCell>
        <mxCell id="FFNAdtqXyO2KNYmjo27n-22" value="Bankszamlaszam" style="ellipse;whiteSpace=wrap;html=1;" parent="1" vertex="1">
          <mxGeometry x="860" y="335" width="120" height="80" as="geometry" />
        </mxCell>
        <mxCell id="FFNAdtqXyO2KNYmjo27n-23" value="TAJ&amp;nbsp;" style="ellipse;whiteSpace=wrap;html=1;" parent="1" vertex="1">
          <mxGeometry x="1000" y="335" width="120" height="80" as="geometry" />
        </mxCell>
        <mxCell id="FFNAdtqXyO2KNYmjo27n-24" value="Szuletesi ido" style="ellipse;whiteSpace=wrap;html=1;" parent="1" vertex="1">
          <mxGeometry x="1140" y="335" width="120" height="80" as="geometry" />
        </mxCell>
        <mxCell id="FFNAdtqXyO2KNYmjo27n-25" value="Beosztas" style="ellipse;whiteSpace=wrap;html=1;" parent="1" vertex="1">
          <mxGeometry x="1280" y="335" width="120" height="80" as="geometry" />
        </mxCell>
        <mxCell id="FFNAdtqXyO2KNYmjo27n-26" value="Munka" style="rhombus;whiteSpace=wrap;html=1;" parent="1" vertex="1">
          <mxGeometry x="1420" y="335" width="80" height="80" as="geometry" />
        </mxCell>
        <mxCell id="FFNAdtqXyO2KNYmjo27n-27" value="" style="rounded=0;whiteSpace=wrap;html=1;" parent="1" vertex="1">
          <mxGeometry x="755" y="470" width="50" height="80" as="geometry" />
        </mxCell>
        <mxCell id="FFNAdtqXyO2KNYmjo27n-28" value="" style="rounded=0;whiteSpace=wrap;html=1;" parent="1" vertex="1">
          <mxGeometry x="895" y="470" width="50" height="80" as="geometry" />
        </mxCell>
        <mxCell id="FFNAdtqXyO2KNYmjo27n-29" value="" style="rounded=0;whiteSpace=wrap;html=1;" parent="1" vertex="1">
          <mxGeometry x="1035" y="470" width="50" height="80" as="geometry" />
        </mxCell>
        <mxCell id="FFNAdtqXyO2KNYmjo27n-30" value="" style="rounded=0;whiteSpace=wrap;html=1;" parent="1" vertex="1">
          <mxGeometry x="1175" y="470" width="50" height="80" as="geometry" />
        </mxCell>
        <mxCell id="FFNAdtqXyO2KNYmjo27n-31" value="" style="rounded=0;whiteSpace=wrap;html=1;" parent="1" vertex="1">
          <mxGeometry x="1315" y="470" width="50" height="80" as="geometry" />
        </mxCell>
        <mxCell id="FFNAdtqXyO2KNYmjo27n-32" value="" style="ellipse;whiteSpace=wrap;html=1;" parent="1" vertex="1">
          <mxGeometry x="1960" y="200" width="140" height="90" as="geometry" />
        </mxCell>
        <mxCell id="FFNAdtqXyO2KNYmjo27n-33" value="Etterem" style="ellipse;whiteSpace=wrap;html=1;" parent="1" vertex="1">
          <mxGeometry x="1970" y="205" width="120" height="80" as="geometry" />
        </mxCell>
        <mxCell id="FFNAdtqXyO2KNYmjo27n-34" value="ID" style="rhombus;whiteSpace=wrap;html=1;" parent="1" vertex="1">
          <mxGeometry x="1590" y="335" width="80" height="80" as="geometry" />
        </mxCell>
        <mxCell id="FFNAdtqXyO2KNYmjo27n-35" value="Etterem_nev" style="ellipse;whiteSpace=wrap;html=1;" parent="1" vertex="1">
          <mxGeometry x="1690" y="335" width="120" height="80" as="geometry" />
        </mxCell>
        <mxCell id="FFNAdtqXyO2KNYmjo27n-36" value="Cim&lt;span style=&quot;color: rgba(0, 0, 0, 0); font-family: monospace; font-size: 0px; text-align: start; text-wrap-mode: nowrap;&quot;&gt;%3CmxGraphModel%3E%3Croot%3E%3CmxCell%20id%3D%220%22%2F%3E%3CmxCell%20id%3D%221%22%20parent%3D%220%22%2F%3E%3CmxCell%20id%3D%222%22%20value%3D%22Etterem_nev%22%20style%3D%22ellipse%3BwhiteSpace%3Dwrap%3Bhtml%3D1%3B%22%20vertex%3D%221%22%20parent%3D%221%22%3E%3CmxGeometry%20x%3D%221720%22%20y%3D%22335%22%20width%3D%22120%22%20height%3D%2280%22%20as%3D%22geometry%22%2F%3E%3C%2FmxCell%3E%3C%2Froot%3E%3C%2FmxGraphModel%3E&lt;/span&gt;" style="ellipse;whiteSpace=wrap;html=1;" parent="1" vertex="1">
          <mxGeometry x="1970" y="335" width="120" height="80" as="geometry" />
        </mxCell>
        <mxCell id="FFNAdtqXyO2KNYmjo27n-37" value="Telefonszam" style="ellipse;whiteSpace=wrap;html=1;" parent="1" vertex="1">
          <mxGeometry x="2250" y="335" width="120" height="80" as="geometry" />
        </mxCell>
        <mxCell id="FFNAdtqXyO2KNYmjo27n-38" value="Iranyitoszam" style="ellipse;whiteSpace=wrap;html=1;" parent="1" vertex="1">
          <mxGeometry x="1840" y="470" width="120" height="80" as="geometry" />
        </mxCell>
        <mxCell id="FFNAdtqXyO2KNYmjo27n-39" value="Utca" style="ellipse;whiteSpace=wrap;html=1;" parent="1" vertex="1">
          <mxGeometry x="1970" y="470" width="120" height="80" as="geometry" />
        </mxCell>
        <mxCell id="FFNAdtqXyO2KNYmjo27n-40" value="Hazszam" style="ellipse;whiteSpace=wrap;html=1;" parent="1" vertex="1">
          <mxGeometry x="2100" y="470" width="120" height="80" as="geometry" />
        </mxCell>
        <mxCell id="FFNAdtqXyO2KNYmjo27n-41" value="" style="rounded=0;whiteSpace=wrap;html=1;" parent="1" vertex="1">
          <mxGeometry x="1725" y="470" width="50" height="80" as="geometry" />
        </mxCell>
        <mxCell id="FFNAdtqXyO2KNYmjo27n-42" value="" style="rounded=0;whiteSpace=wrap;html=1;" parent="1" vertex="1">
          <mxGeometry x="1875" y="600" width="50" height="80" as="geometry" />
        </mxCell>
        <mxCell id="FFNAdtqXyO2KNYmjo27n-43" value="" style="rounded=0;whiteSpace=wrap;html=1;" parent="1" vertex="1">
          <mxGeometry x="2005" y="600" width="50" height="80" as="geometry" />
        </mxCell>
        <mxCell id="FFNAdtqXyO2KNYmjo27n-44" value="" style="rounded=0;whiteSpace=wrap;html=1;" parent="1" vertex="1">
          <mxGeometry x="2135" y="600" width="50" height="80" as="geometry" />
        </mxCell>
        <mxCell id="FFNAdtqXyO2KNYmjo27n-45" value="" style="rounded=0;whiteSpace=wrap;html=1;" parent="1" vertex="1">
          <mxGeometry x="2285" y="470" width="50" height="80" as="geometry" />
        </mxCell>
        <mxCell id="FFNAdtqXyO2KNYmjo27n-46" value="" style="ellipse;whiteSpace=wrap;html=1;" parent="1" vertex="1">
          <mxGeometry x="2740" y="200" width="140" height="90" as="geometry" />
        </mxCell>
        <mxCell id="FFNAdtqXyO2KNYmjo27n-47" value="Rendeles" style="ellipse;whiteSpace=wrap;html=1;" parent="1" vertex="1">
          <mxGeometry x="2750" y="205" width="120" height="80" as="geometry" />
        </mxCell>
        <mxCell id="FFNAdtqXyO2KNYmjo27n-48" value="ID" style="rhombus;whiteSpace=wrap;html=1;" parent="1" vertex="1">
          <mxGeometry x="2480" y="335" width="80" height="80" as="geometry" />
        </mxCell>
        <mxCell id="FFNAdtqXyO2KNYmjo27n-49" value="Ár" style="ellipse;whiteSpace=wrap;html=1;" parent="1" vertex="1">
          <mxGeometry x="2590" y="335" width="120" height="80" as="geometry" />
        </mxCell>
        <mxCell id="FFNAdtqXyO2KNYmjo27n-50" value="Státusz" style="ellipse;whiteSpace=wrap;html=1;" parent="1" vertex="1">
          <mxGeometry x="2750" y="335" width="120" height="80" as="geometry" />
        </mxCell>
        <mxCell id="FFNAdtqXyO2KNYmjo27n-51" value="Idő" style="ellipse;whiteSpace=wrap;html=1;" parent="1" vertex="1">
          <mxGeometry x="2915" y="335" width="120" height="80" as="geometry" />
        </mxCell>
        <mxCell id="FFNAdtqXyO2KNYmjo27n-52" value="Felszolgalas" style="rhombus;whiteSpace=wrap;html=1;" parent="1" vertex="1">
          <mxGeometry x="3080" y="335" width="80" height="80" as="geometry" />
        </mxCell>
        <mxCell id="FFNAdtqXyO2KNYmjo27n-53" value="Rendelve" style="rhombus;whiteSpace=wrap;html=1;" parent="1" vertex="1">
          <mxGeometry x="3200" y="335" width="80" height="80" as="geometry" />
        </mxCell>
        <mxCell id="FFNAdtqXyO2KNYmjo27n-54" value="" style="ellipse;whiteSpace=wrap;html=1;" parent="1" vertex="1">
          <mxGeometry x="3630" y="195" width="140" height="90" as="geometry" />
        </mxCell>
        <mxCell id="FFNAdtqXyO2KNYmjo27n-55" value="Vendeg" style="ellipse;whiteSpace=wrap;html=1;" parent="1" vertex="1">
          <mxGeometry x="3640" y="200" width="120" height="80" as="geometry" />
        </mxCell>
        <mxCell id="FFNAdtqXyO2KNYmjo27n-56" value="ID" style="rhombus;whiteSpace=wrap;html=1;" parent="1" vertex="1">
          <mxGeometry x="3360" y="330" width="80" height="80" as="geometry" />
        </mxCell>
        <mxCell id="FFNAdtqXyO2KNYmjo27n-57" value="Nev" style="ellipse;whiteSpace=wrap;html=1;" parent="1" vertex="1">
          <mxGeometry x="3470" y="330" width="120" height="80" as="geometry" />
        </mxCell>
        <mxCell id="FFNAdtqXyO2KNYmjo27n-58" value="Email" style="ellipse;whiteSpace=wrap;html=1;" parent="1" vertex="1">
          <mxGeometry x="3640" y="330" width="120" height="80" as="geometry" />
        </mxCell>
        <mxCell id="FFNAdtqXyO2KNYmjo27n-59" value="Telefonszam" style="ellipse;whiteSpace=wrap;html=1;" parent="1" vertex="1">
          <mxGeometry x="3810" y="330" width="120" height="80" as="geometry" />
        </mxCell>
        <mxCell id="FFNAdtqXyO2KNYmjo27n-60" value="" style="rounded=0;whiteSpace=wrap;html=1;" parent="1" vertex="1">
          <mxGeometry x="2625" y="470" width="50" height="80" as="geometry" />
        </mxCell>
        <mxCell id="FFNAdtqXyO2KNYmjo27n-61" value="" style="rounded=0;whiteSpace=wrap;html=1;" parent="1" vertex="1">
          <mxGeometry x="2785" y="470" width="50" height="80" as="geometry" />
        </mxCell>
        <mxCell id="FFNAdtqXyO2KNYmjo27n-62" value="" style="rounded=0;whiteSpace=wrap;html=1;" parent="1" vertex="1">
          <mxGeometry x="2950" y="470" width="50" height="80" as="geometry" />
        </mxCell>
        <mxCell id="FFNAdtqXyO2KNYmjo27n-63" value="" style="rounded=0;whiteSpace=wrap;html=1;" parent="1" vertex="1">
          <mxGeometry x="3505" y="465" width="50" height="80" as="geometry" />
        </mxCell>
        <mxCell id="FFNAdtqXyO2KNYmjo27n-64" value="" style="rounded=0;whiteSpace=wrap;html=1;" parent="1" vertex="1">
          <mxGeometry x="3675" y="465" width="50" height="80" as="geometry" />
        </mxCell>
        <mxCell id="FFNAdtqXyO2KNYmjo27n-65" value="" style="rounded=0;whiteSpace=wrap;html=1;" parent="1" vertex="1">
          <mxGeometry x="3845" y="465" width="50" height="80" as="geometry" />
        </mxCell>
        <mxCell id="FFNAdtqXyO2KNYmjo27n-66" value="" style="endArrow=none;html=1;rounded=0;entryX=0.5;entryY=1;entryDx=0;entryDy=0;exitX=0.5;exitY=0;exitDx=0;exitDy=0;" parent="1" source="FFNAdtqXyO2KNYmjo27n-3" target="FFNAdtqXyO2KNYmjo27n-1" edge="1">
          <mxGeometry width="50" height="50" relative="1" as="geometry">
            <mxPoint x="1470" y="800" as="sourcePoint" />
            <mxPoint x="1520" y="750" as="targetPoint" />
          </mxGeometry>
        </mxCell>
        <mxCell id="FFNAdtqXyO2KNYmjo27n-67" value="" style="endArrow=none;html=1;rounded=0;entryX=0.5;entryY=1;entryDx=0;entryDy=0;exitX=0.5;exitY=0;exitDx=0;exitDy=0;" parent="1" source="FFNAdtqXyO2KNYmjo27n-14" target="FFNAdtqXyO2KNYmjo27n-1" edge="1">
          <mxGeometry width="50" height="50" relative="1" as="geometry">
            <mxPoint x="-220" y="210" as="sourcePoint" />
            <mxPoint x="1550" y="90" as="targetPoint" />
          </mxGeometry>
        </mxCell>
        <mxCell id="FFNAdtqXyO2KNYmjo27n-68" value="" style="endArrow=none;html=1;rounded=0;entryX=0.5;entryY=1;entryDx=0;entryDy=0;exitX=0.5;exitY=0;exitDx=0;exitDy=0;" parent="1" source="FFNAdtqXyO2KNYmjo27n-19" target="FFNAdtqXyO2KNYmjo27n-1" edge="1">
          <mxGeometry width="50" height="50" relative="1" as="geometry">
            <mxPoint x="290" y="215" as="sourcePoint" />
            <mxPoint x="1550" y="90" as="targetPoint" />
          </mxGeometry>
        </mxCell>
        <mxCell id="FFNAdtqXyO2KNYmjo27n-69" value="" style="endArrow=none;html=1;rounded=0;entryX=0.5;entryY=1;entryDx=0;entryDy=0;exitX=0.5;exitY=0;exitDx=0;exitDy=0;" parent="1" source="FFNAdtqXyO2KNYmjo27n-33" target="FFNAdtqXyO2KNYmjo27n-1" edge="1">
          <mxGeometry width="50" height="50" relative="1" as="geometry">
            <mxPoint x="920" y="215" as="sourcePoint" />
            <mxPoint x="1550" y="90" as="targetPoint" />
          </mxGeometry>
        </mxCell>
        <mxCell id="FFNAdtqXyO2KNYmjo27n-70" value="" style="endArrow=none;html=1;rounded=0;entryX=0.5;entryY=1;entryDx=0;entryDy=0;exitX=0.5;exitY=0;exitDx=0;exitDy=0;" parent="1" source="FFNAdtqXyO2KNYmjo27n-47" target="FFNAdtqXyO2KNYmjo27n-1" edge="1">
          <mxGeometry width="50" height="50" relative="1" as="geometry">
            <mxPoint x="2020" y="180" as="sourcePoint" />
            <mxPoint x="1550" y="90" as="targetPoint" />
          </mxGeometry>
        </mxCell>
        <mxCell id="FFNAdtqXyO2KNYmjo27n-71" value="" style="endArrow=none;html=1;rounded=0;entryX=0.5;entryY=1;entryDx=0;entryDy=0;" parent="1" target="FFNAdtqXyO2KNYmjo27n-1" edge="1">
          <mxGeometry width="50" height="50" relative="1" as="geometry">
            <mxPoint x="3700" y="200" as="sourcePoint" />
            <mxPoint x="1530" y="120" as="targetPoint" />
          </mxGeometry>
        </mxCell>
        <mxCell id="FFNAdtqXyO2KNYmjo27n-72" value="" style="endArrow=none;html=1;rounded=0;exitX=0.5;exitY=0;exitDx=0;exitDy=0;entryX=0.5;entryY=1;entryDx=0;entryDy=0;" parent="1" source="FFNAdtqXyO2KNYmjo27n-9" target="FFNAdtqXyO2KNYmjo27n-3" edge="1">
          <mxGeometry width="50" height="50" relative="1" as="geometry">
            <mxPoint x="-430" y="320" as="sourcePoint" />
            <mxPoint x="-380" y="270" as="targetPoint" />
          </mxGeometry>
        </mxCell>
        <mxCell id="FFNAdtqXyO2KNYmjo27n-73" value="" style="endArrow=none;html=1;rounded=0;exitX=0.5;exitY=0;exitDx=0;exitDy=0;entryX=0.5;entryY=1;entryDx=0;entryDy=0;" parent="1" source="FFNAdtqXyO2KNYmjo27n-8" target="FFNAdtqXyO2KNYmjo27n-2" edge="1">
          <mxGeometry width="50" height="50" relative="1" as="geometry">
            <mxPoint x="-540" y="345" as="sourcePoint" />
            <mxPoint x="-220" y="300" as="targetPoint" />
          </mxGeometry>
        </mxCell>
        <mxCell id="FFNAdtqXyO2KNYmjo27n-74" value="" style="endArrow=none;html=1;rounded=0;exitX=0.5;exitY=0;exitDx=0;exitDy=0;entryX=0.5;entryY=1;entryDx=0;entryDy=0;" parent="1" source="FFNAdtqXyO2KNYmjo27n-4" target="FFNAdtqXyO2KNYmjo27n-3" edge="1">
          <mxGeometry width="50" height="50" relative="1" as="geometry">
            <mxPoint x="-390" y="345" as="sourcePoint" />
            <mxPoint x="-220" y="295" as="targetPoint" />
          </mxGeometry>
        </mxCell>
        <mxCell id="FFNAdtqXyO2KNYmjo27n-75" value="" style="endArrow=none;html=1;rounded=0;exitX=0.5;exitY=0;exitDx=0;exitDy=0;entryX=0.5;entryY=1;entryDx=0;entryDy=0;" parent="1" source="FFNAdtqXyO2KNYmjo27n-7" target="FFNAdtqXyO2KNYmjo27n-3" edge="1">
          <mxGeometry width="50" height="50" relative="1" as="geometry">
            <mxPoint x="-220" y="340" as="sourcePoint" />
            <mxPoint x="-130" y="290" as="targetPoint" />
          </mxGeometry>
        </mxCell>
        <mxCell id="FFNAdtqXyO2KNYmjo27n-76" value="" style="endArrow=none;html=1;rounded=0;entryX=0.5;entryY=1;entryDx=0;entryDy=0;exitX=0.5;exitY=0;exitDx=0;exitDy=0;" parent="1" source="FFNAdtqXyO2KNYmjo27n-10" target="FFNAdtqXyO2KNYmjo27n-8" edge="1">
          <mxGeometry width="50" height="50" relative="1" as="geometry">
            <mxPoint x="-470" y="490" as="sourcePoint" />
            <mxPoint x="-420" y="440" as="targetPoint" />
          </mxGeometry>
        </mxCell>
        <mxCell id="FFNAdtqXyO2KNYmjo27n-77" value="" style="endArrow=none;html=1;rounded=0;entryX=0.5;entryY=1;entryDx=0;entryDy=0;exitX=0.5;exitY=0;exitDx=0;exitDy=0;" parent="1" source="FFNAdtqXyO2KNYmjo27n-11" target="FFNAdtqXyO2KNYmjo27n-4" edge="1">
          <mxGeometry width="50" height="50" relative="1" as="geometry">
            <mxPoint x="-390" y="480" as="sourcePoint" />
            <mxPoint x="-390" y="425" as="targetPoint" />
            <Array as="points" />
          </mxGeometry>
        </mxCell>
        <mxCell id="FFNAdtqXyO2KNYmjo27n-78" value="" style="endArrow=none;html=1;rounded=0;entryX=0.5;entryY=1;entryDx=0;entryDy=0;exitX=0.5;exitY=0;exitDx=0;exitDy=0;" parent="1" source="FFNAdtqXyO2KNYmjo27n-12" target="FFNAdtqXyO2KNYmjo27n-7" edge="1">
          <mxGeometry width="50" height="50" relative="1" as="geometry">
            <mxPoint x="-220" y="480" as="sourcePoint" />
            <mxPoint x="-220" y="430" as="targetPoint" />
            <Array as="points" />
          </mxGeometry>
        </mxCell>
        <mxCell id="FFNAdtqXyO2KNYmjo27n-79" value="" style="endArrow=none;html=1;rounded=0;exitX=0.5;exitY=0;exitDx=0;exitDy=0;entryX=0.5;entryY=1;entryDx=0;entryDy=0;" parent="1" source="FFNAdtqXyO2KNYmjo27n-15" target="FFNAdtqXyO2KNYmjo27n-13" edge="1">
          <mxGeometry width="50" height="50" relative="1" as="geometry">
            <mxPoint x="140" y="320" as="sourcePoint" />
            <mxPoint x="190" y="270" as="targetPoint" />
          </mxGeometry>
        </mxCell>
        <mxCell id="FFNAdtqXyO2KNYmjo27n-80" value="" style="endArrow=none;html=1;rounded=0;exitX=0.5;exitY=0;exitDx=0;exitDy=0;entryX=0.5;entryY=1;entryDx=0;entryDy=0;" parent="1" source="FFNAdtqXyO2KNYmjo27n-16" target="FFNAdtqXyO2KNYmjo27n-13" edge="1">
          <mxGeometry width="50" height="50" relative="1" as="geometry">
            <mxPoint x="140" y="345" as="sourcePoint" />
            <mxPoint x="290" y="300" as="targetPoint" />
          </mxGeometry>
        </mxCell>
        <mxCell id="FFNAdtqXyO2KNYmjo27n-81" value="" style="endArrow=none;html=1;rounded=0;exitX=0.5;exitY=0;exitDx=0;exitDy=0;entryX=0.5;entryY=1;entryDx=0;entryDy=0;" parent="1" source="FFNAdtqXyO2KNYmjo27n-17" target="FFNAdtqXyO2KNYmjo27n-13" edge="1">
          <mxGeometry width="50" height="50" relative="1" as="geometry">
            <mxPoint x="150" y="355" as="sourcePoint" />
            <mxPoint x="300" y="310" as="targetPoint" />
          </mxGeometry>
        </mxCell>
        <mxCell id="FFNAdtqXyO2KNYmjo27n-82" value="" style="endArrow=none;html=1;rounded=0;exitX=0.5;exitY=0;exitDx=0;exitDy=0;entryX=0.5;entryY=1;entryDx=0;entryDy=0;" parent="1" source="FFNAdtqXyO2KNYmjo27n-20" target="FFNAdtqXyO2KNYmjo27n-18" edge="1">
          <mxGeometry width="50" height="50" relative="1" as="geometry">
            <mxPoint x="690" y="330" as="sourcePoint" />
            <mxPoint x="740" y="280" as="targetPoint" />
          </mxGeometry>
        </mxCell>
        <mxCell id="FFNAdtqXyO2KNYmjo27n-83" value="" style="endArrow=none;html=1;rounded=0;exitX=0.5;exitY=0;exitDx=0;exitDy=0;" parent="1" source="FFNAdtqXyO2KNYmjo27n-21" edge="1">
          <mxGeometry width="50" height="50" relative="1" as="geometry">
            <mxPoint x="630" y="345" as="sourcePoint" />
            <mxPoint x="910" y="290" as="targetPoint" />
          </mxGeometry>
        </mxCell>
        <mxCell id="FFNAdtqXyO2KNYmjo27n-84" value="" style="endArrow=none;html=1;rounded=0;exitX=0.5;exitY=0;exitDx=0;exitDy=0;entryX=0.5;entryY=1;entryDx=0;entryDy=0;" parent="1" source="FFNAdtqXyO2KNYmjo27n-22" target="FFNAdtqXyO2KNYmjo27n-18" edge="1">
          <mxGeometry width="50" height="50" relative="1" as="geometry">
            <mxPoint x="790" y="345" as="sourcePoint" />
            <mxPoint x="920" y="300" as="targetPoint" />
          </mxGeometry>
        </mxCell>
        <mxCell id="FFNAdtqXyO2KNYmjo27n-85" value="" style="endArrow=none;html=1;rounded=0;exitX=0.5;exitY=0;exitDx=0;exitDy=0;entryX=0.5;entryY=1;entryDx=0;entryDy=0;" parent="1" source="FFNAdtqXyO2KNYmjo27n-23" target="FFNAdtqXyO2KNYmjo27n-18" edge="1">
          <mxGeometry width="50" height="50" relative="1" as="geometry">
            <mxPoint x="800" y="355" as="sourcePoint" />
            <mxPoint x="930" y="310" as="targetPoint" />
          </mxGeometry>
        </mxCell>
        <mxCell id="FFNAdtqXyO2KNYmjo27n-86" value="" style="endArrow=none;html=1;rounded=0;exitX=0.5;exitY=0;exitDx=0;exitDy=0;entryX=0.5;entryY=1;entryDx=0;entryDy=0;" parent="1" source="FFNAdtqXyO2KNYmjo27n-24" target="FFNAdtqXyO2KNYmjo27n-18" edge="1">
          <mxGeometry width="50" height="50" relative="1" as="geometry">
            <mxPoint x="1070" y="345" as="sourcePoint" />
            <mxPoint x="920" y="300" as="targetPoint" />
          </mxGeometry>
        </mxCell>
        <mxCell id="FFNAdtqXyO2KNYmjo27n-87" value="" style="endArrow=none;html=1;rounded=0;exitX=0.5;exitY=0;exitDx=0;exitDy=0;entryX=0.5;entryY=1;entryDx=0;entryDy=0;" parent="1" source="FFNAdtqXyO2KNYmjo27n-25" target="FFNAdtqXyO2KNYmjo27n-19" edge="1">
          <mxGeometry width="50" height="50" relative="1" as="geometry">
            <mxPoint x="1210" y="345" as="sourcePoint" />
            <mxPoint x="920" y="300" as="targetPoint" />
          </mxGeometry>
        </mxCell>
        <mxCell id="FFNAdtqXyO2KNYmjo27n-88" value="" style="endArrow=none;html=1;rounded=0;exitX=0.5;exitY=0;exitDx=0;exitDy=0;entryX=0.5;entryY=1;entryDx=0;entryDy=0;" parent="1" source="FFNAdtqXyO2KNYmjo27n-26" target="FFNAdtqXyO2KNYmjo27n-19" edge="1">
          <mxGeometry width="50" height="50" relative="1" as="geometry">
            <mxPoint x="1350" y="345" as="sourcePoint" />
            <mxPoint x="920" y="295" as="targetPoint" />
          </mxGeometry>
        </mxCell>
        <mxCell id="FFNAdtqXyO2KNYmjo27n-89" value="" style="endArrow=none;html=1;rounded=0;entryX=0.5;entryY=1;entryDx=0;entryDy=0;exitX=0.5;exitY=0;exitDx=0;exitDy=0;" parent="1" source="FFNAdtqXyO2KNYmjo27n-27" target="FFNAdtqXyO2KNYmjo27n-21" edge="1">
          <mxGeometry width="50" height="50" relative="1" as="geometry">
            <mxPoint x="670" y="540" as="sourcePoint" />
            <mxPoint x="720" y="490" as="targetPoint" />
          </mxGeometry>
        </mxCell>
        <mxCell id="FFNAdtqXyO2KNYmjo27n-90" value="" style="endArrow=none;html=1;rounded=0;entryX=0.5;entryY=1;entryDx=0;entryDy=0;exitX=0.5;exitY=0;exitDx=0;exitDy=0;" parent="1" source="FFNAdtqXyO2KNYmjo27n-28" target="FFNAdtqXyO2KNYmjo27n-22" edge="1">
          <mxGeometry width="50" height="50" relative="1" as="geometry">
            <mxPoint x="790" y="480" as="sourcePoint" />
            <mxPoint x="790" y="425" as="targetPoint" />
          </mxGeometry>
        </mxCell>
        <mxCell id="FFNAdtqXyO2KNYmjo27n-91" value="" style="endArrow=none;html=1;rounded=0;entryX=0.5;entryY=1;entryDx=0;entryDy=0;exitX=0.5;exitY=0;exitDx=0;exitDy=0;" parent="1" source="FFNAdtqXyO2KNYmjo27n-29" target="FFNAdtqXyO2KNYmjo27n-23" edge="1">
          <mxGeometry width="50" height="50" relative="1" as="geometry">
            <mxPoint x="930" y="480" as="sourcePoint" />
            <mxPoint x="930" y="425" as="targetPoint" />
          </mxGeometry>
        </mxCell>
        <mxCell id="FFNAdtqXyO2KNYmjo27n-92" value="" style="endArrow=none;html=1;rounded=0;entryX=0.5;entryY=1;entryDx=0;entryDy=0;exitX=0.5;exitY=0;exitDx=0;exitDy=0;" parent="1" source="FFNAdtqXyO2KNYmjo27n-30" target="FFNAdtqXyO2KNYmjo27n-24" edge="1">
          <mxGeometry width="50" height="50" relative="1" as="geometry">
            <mxPoint x="1070" y="480" as="sourcePoint" />
            <mxPoint x="1070" y="425" as="targetPoint" />
          </mxGeometry>
        </mxCell>
        <mxCell id="FFNAdtqXyO2KNYmjo27n-93" value="" style="endArrow=none;html=1;rounded=0;entryX=0.5;entryY=1;entryDx=0;entryDy=0;exitX=0.5;exitY=0;exitDx=0;exitDy=0;" parent="1" source="FFNAdtqXyO2KNYmjo27n-31" target="FFNAdtqXyO2KNYmjo27n-25" edge="1">
          <mxGeometry width="50" height="50" relative="1" as="geometry">
            <mxPoint x="1210" y="480" as="sourcePoint" />
            <mxPoint x="1210" y="425" as="targetPoint" />
          </mxGeometry>
        </mxCell>
        <mxCell id="FFNAdtqXyO2KNYmjo27n-94" value="" style="endArrow=none;html=1;rounded=0;exitX=0.5;exitY=0;exitDx=0;exitDy=0;entryX=0.5;entryY=1;entryDx=0;entryDy=0;" parent="1" source="FFNAdtqXyO2KNYmjo27n-34" target="FFNAdtqXyO2KNYmjo27n-32" edge="1">
          <mxGeometry width="50" height="50" relative="1" as="geometry">
            <mxPoint x="1890" y="340" as="sourcePoint" />
            <mxPoint x="1940" y="290" as="targetPoint" />
          </mxGeometry>
        </mxCell>
        <mxCell id="FFNAdtqXyO2KNYmjo27n-95" value="" style="endArrow=none;html=1;rounded=0;exitX=0.5;exitY=0;exitDx=0;exitDy=0;entryX=0.5;entryY=1;entryDx=0;entryDy=0;" parent="1" source="FFNAdtqXyO2KNYmjo27n-35" target="FFNAdtqXyO2KNYmjo27n-32" edge="1">
          <mxGeometry width="50" height="50" relative="1" as="geometry">
            <mxPoint x="1640" y="345" as="sourcePoint" />
            <mxPoint x="2040" y="300" as="targetPoint" />
          </mxGeometry>
        </mxCell>
        <mxCell id="FFNAdtqXyO2KNYmjo27n-96" value="" style="endArrow=none;html=1;rounded=0;exitX=0.5;exitY=0;exitDx=0;exitDy=0;entryX=0.5;entryY=1;entryDx=0;entryDy=0;" parent="1" source="FFNAdtqXyO2KNYmjo27n-36" target="FFNAdtqXyO2KNYmjo27n-32" edge="1">
          <mxGeometry width="50" height="50" relative="1" as="geometry">
            <mxPoint x="1760" y="345" as="sourcePoint" />
            <mxPoint x="2040" y="300" as="targetPoint" />
          </mxGeometry>
        </mxCell>
        <mxCell id="FFNAdtqXyO2KNYmjo27n-97" value="" style="endArrow=none;html=1;rounded=0;exitX=0.5;exitY=0;exitDx=0;exitDy=0;entryX=0.5;entryY=1;entryDx=0;entryDy=0;" parent="1" source="FFNAdtqXyO2KNYmjo27n-37" target="FFNAdtqXyO2KNYmjo27n-32" edge="1">
          <mxGeometry width="50" height="50" relative="1" as="geometry">
            <mxPoint x="2040" y="345" as="sourcePoint" />
            <mxPoint x="2040" y="300" as="targetPoint" />
          </mxGeometry>
        </mxCell>
        <mxCell id="FFNAdtqXyO2KNYmjo27n-98" value="" style="endArrow=none;html=1;rounded=0;exitX=0.5;exitY=0;exitDx=0;exitDy=0;entryX=0.5;entryY=1;entryDx=0;entryDy=0;" parent="1" source="FFNAdtqXyO2KNYmjo27n-41" target="FFNAdtqXyO2KNYmjo27n-35" edge="1">
          <mxGeometry width="50" height="50" relative="1" as="geometry">
            <mxPoint x="1890" y="440" as="sourcePoint" />
            <mxPoint x="1940" y="390" as="targetPoint" />
          </mxGeometry>
        </mxCell>
        <mxCell id="FFNAdtqXyO2KNYmjo27n-99" value="" style="endArrow=none;html=1;rounded=0;exitX=0.5;exitY=0;exitDx=0;exitDy=0;entryX=0.5;entryY=1;entryDx=0;entryDy=0;" parent="1" source="FFNAdtqXyO2KNYmjo27n-38" target="FFNAdtqXyO2KNYmjo27n-36" edge="1">
          <mxGeometry width="50" height="50" relative="1" as="geometry">
            <mxPoint x="1760" y="480" as="sourcePoint" />
            <mxPoint x="1760" y="425" as="targetPoint" />
          </mxGeometry>
        </mxCell>
        <mxCell id="FFNAdtqXyO2KNYmjo27n-100" value="" style="endArrow=none;html=1;rounded=0;exitX=0.5;exitY=0;exitDx=0;exitDy=0;entryX=0.5;entryY=1;entryDx=0;entryDy=0;" parent="1" source="FFNAdtqXyO2KNYmjo27n-39" target="FFNAdtqXyO2KNYmjo27n-36" edge="1">
          <mxGeometry width="50" height="50" relative="1" as="geometry">
            <mxPoint x="1910" y="480" as="sourcePoint" />
            <mxPoint x="2040" y="425" as="targetPoint" />
          </mxGeometry>
        </mxCell>
        <mxCell id="FFNAdtqXyO2KNYmjo27n-101" value="" style="endArrow=none;html=1;rounded=0;exitX=0.5;exitY=0;exitDx=0;exitDy=0;entryX=0.5;entryY=1;entryDx=0;entryDy=0;" parent="1" source="FFNAdtqXyO2KNYmjo27n-40" target="FFNAdtqXyO2KNYmjo27n-36" edge="1">
          <mxGeometry width="50" height="50" relative="1" as="geometry">
            <mxPoint x="2040" y="480" as="sourcePoint" />
            <mxPoint x="2040" y="425" as="targetPoint" />
          </mxGeometry>
        </mxCell>
        <mxCell id="FFNAdtqXyO2KNYmjo27n-102" value="" style="endArrow=none;html=1;rounded=0;entryX=0.5;entryY=1;entryDx=0;entryDy=0;exitX=0.5;exitY=0;exitDx=0;exitDy=0;" parent="1" source="FFNAdtqXyO2KNYmjo27n-45" target="FFNAdtqXyO2KNYmjo27n-37" edge="1">
          <mxGeometry width="50" height="50" relative="1" as="geometry">
            <mxPoint x="2200" y="500" as="sourcePoint" />
            <mxPoint x="2250" y="450" as="targetPoint" />
          </mxGeometry>
        </mxCell>
        <mxCell id="FFNAdtqXyO2KNYmjo27n-103" value="" style="endArrow=none;html=1;rounded=0;entryX=0.5;entryY=1;entryDx=0;entryDy=0;exitX=0.5;exitY=0;exitDx=0;exitDy=0;" parent="1" source="FFNAdtqXyO2KNYmjo27n-42" target="FFNAdtqXyO2KNYmjo27n-38" edge="1">
          <mxGeometry width="50" height="50" relative="1" as="geometry">
            <mxPoint x="1790" y="660" as="sourcePoint" />
            <mxPoint x="1840" y="610" as="targetPoint" />
          </mxGeometry>
        </mxCell>
        <mxCell id="FFNAdtqXyO2KNYmjo27n-104" value="" style="endArrow=none;html=1;rounded=0;entryX=0.5;entryY=1;entryDx=0;entryDy=0;exitX=0.5;exitY=0;exitDx=0;exitDy=0;" parent="1" source="FFNAdtqXyO2KNYmjo27n-43" target="FFNAdtqXyO2KNYmjo27n-39" edge="1">
          <mxGeometry width="50" height="50" relative="1" as="geometry">
            <mxPoint x="1910" y="610" as="sourcePoint" />
            <mxPoint x="1910" y="560" as="targetPoint" />
          </mxGeometry>
        </mxCell>
        <mxCell id="FFNAdtqXyO2KNYmjo27n-105" value="" style="endArrow=none;html=1;rounded=0;entryX=0.5;entryY=1;entryDx=0;entryDy=0;exitX=0.5;exitY=0;exitDx=0;exitDy=0;" parent="1" source="FFNAdtqXyO2KNYmjo27n-44" target="FFNAdtqXyO2KNYmjo27n-40" edge="1">
          <mxGeometry width="50" height="50" relative="1" as="geometry">
            <mxPoint x="1920" y="620" as="sourcePoint" />
            <mxPoint x="1920" y="570" as="targetPoint" />
          </mxGeometry>
        </mxCell>
        <mxCell id="FFNAdtqXyO2KNYmjo27n-106" value="" style="endArrow=none;html=1;rounded=0;exitX=0.5;exitY=0;exitDx=0;exitDy=0;entryX=0.5;entryY=1;entryDx=0;entryDy=0;" parent="1" source="FFNAdtqXyO2KNYmjo27n-48" target="FFNAdtqXyO2KNYmjo27n-46" edge="1">
          <mxGeometry width="50" height="50" relative="1" as="geometry">
            <mxPoint x="2590" y="320" as="sourcePoint" />
            <mxPoint x="2640" y="270" as="targetPoint" />
          </mxGeometry>
        </mxCell>
        <mxCell id="FFNAdtqXyO2KNYmjo27n-107" value="" style="endArrow=none;html=1;rounded=0;exitX=0.5;exitY=0;exitDx=0;exitDy=0;entryX=0.5;entryY=1;entryDx=0;entryDy=0;" parent="1" source="FFNAdtqXyO2KNYmjo27n-49" target="FFNAdtqXyO2KNYmjo27n-46" edge="1">
          <mxGeometry width="50" height="50" relative="1" as="geometry">
            <mxPoint x="2530" y="345" as="sourcePoint" />
            <mxPoint x="2820" y="300" as="targetPoint" />
          </mxGeometry>
        </mxCell>
        <mxCell id="FFNAdtqXyO2KNYmjo27n-108" value="" style="endArrow=none;html=1;rounded=0;exitX=0.5;exitY=0;exitDx=0;exitDy=0;entryX=0.5;entryY=1;entryDx=0;entryDy=0;" parent="1" source="FFNAdtqXyO2KNYmjo27n-50" target="FFNAdtqXyO2KNYmjo27n-46" edge="1">
          <mxGeometry width="50" height="50" relative="1" as="geometry">
            <mxPoint x="2660" y="345" as="sourcePoint" />
            <mxPoint x="2820" y="300" as="targetPoint" />
          </mxGeometry>
        </mxCell>
        <mxCell id="FFNAdtqXyO2KNYmjo27n-109" value="" style="endArrow=none;html=1;rounded=0;exitX=0.5;exitY=0;exitDx=0;exitDy=0;entryX=0.5;entryY=1;entryDx=0;entryDy=0;" parent="1" source="FFNAdtqXyO2KNYmjo27n-51" target="FFNAdtqXyO2KNYmjo27n-46" edge="1">
          <mxGeometry width="50" height="50" relative="1" as="geometry">
            <mxPoint x="2820" y="345" as="sourcePoint" />
            <mxPoint x="2820" y="300" as="targetPoint" />
          </mxGeometry>
        </mxCell>
        <mxCell id="FFNAdtqXyO2KNYmjo27n-110" value="" style="endArrow=none;html=1;rounded=0;exitX=0.5;exitY=0;exitDx=0;exitDy=0;entryX=0.5;entryY=1;entryDx=0;entryDy=0;" parent="1" source="FFNAdtqXyO2KNYmjo27n-52" target="FFNAdtqXyO2KNYmjo27n-46" edge="1">
          <mxGeometry width="50" height="50" relative="1" as="geometry">
            <mxPoint x="2985" y="345" as="sourcePoint" />
            <mxPoint x="2820" y="300" as="targetPoint" />
          </mxGeometry>
        </mxCell>
        <mxCell id="FFNAdtqXyO2KNYmjo27n-111" value="" style="endArrow=none;html=1;rounded=0;exitX=0.5;exitY=0;exitDx=0;exitDy=0;entryX=0.5;entryY=1;entryDx=0;entryDy=0;" parent="1" source="FFNAdtqXyO2KNYmjo27n-53" target="FFNAdtqXyO2KNYmjo27n-46" edge="1">
          <mxGeometry width="50" height="50" relative="1" as="geometry">
            <mxPoint x="2995" y="355" as="sourcePoint" />
            <mxPoint x="2830" y="310" as="targetPoint" />
          </mxGeometry>
        </mxCell>
        <mxCell id="FFNAdtqXyO2KNYmjo27n-112" value="" style="endArrow=none;html=1;rounded=0;entryX=0.5;entryY=1;entryDx=0;entryDy=0;exitX=0.5;exitY=0;exitDx=0;exitDy=0;" parent="1" source="FFNAdtqXyO2KNYmjo27n-60" target="FFNAdtqXyO2KNYmjo27n-49" edge="1">
          <mxGeometry width="50" height="50" relative="1" as="geometry">
            <mxPoint x="2550" y="530" as="sourcePoint" />
            <mxPoint x="2600" y="480" as="targetPoint" />
          </mxGeometry>
        </mxCell>
        <mxCell id="FFNAdtqXyO2KNYmjo27n-113" value="" style="endArrow=none;html=1;rounded=0;entryX=0.5;entryY=1;entryDx=0;entryDy=0;exitX=0.5;exitY=0;exitDx=0;exitDy=0;" parent="1" source="FFNAdtqXyO2KNYmjo27n-61" target="FFNAdtqXyO2KNYmjo27n-50" edge="1">
          <mxGeometry width="50" height="50" relative="1" as="geometry">
            <mxPoint x="2660" y="480" as="sourcePoint" />
            <mxPoint x="2660" y="425" as="targetPoint" />
          </mxGeometry>
        </mxCell>
        <mxCell id="FFNAdtqXyO2KNYmjo27n-114" value="" style="endArrow=none;html=1;rounded=0;entryX=0.5;entryY=1;entryDx=0;entryDy=0;exitX=0.5;exitY=0;exitDx=0;exitDy=0;" parent="1" source="FFNAdtqXyO2KNYmjo27n-62" target="FFNAdtqXyO2KNYmjo27n-51" edge="1">
          <mxGeometry width="50" height="50" relative="1" as="geometry">
            <mxPoint x="2820" y="480" as="sourcePoint" />
            <mxPoint x="2820" y="425" as="targetPoint" />
          </mxGeometry>
        </mxCell>
        <mxCell id="FFNAdtqXyO2KNYmjo27n-115" value="" style="endArrow=none;html=1;rounded=0;exitX=0.5;exitY=0;exitDx=0;exitDy=0;entryX=0.5;entryY=1;entryDx=0;entryDy=0;" parent="1" source="FFNAdtqXyO2KNYmjo27n-56" target="FFNAdtqXyO2KNYmjo27n-54" edge="1">
          <mxGeometry width="50" height="50" relative="1" as="geometry">
            <mxPoint x="3480" y="310" as="sourcePoint" />
            <mxPoint x="3530" y="260" as="targetPoint" />
          </mxGeometry>
        </mxCell>
        <mxCell id="FFNAdtqXyO2KNYmjo27n-116" value="" style="endArrow=none;html=1;rounded=0;exitX=0.5;exitY=0;exitDx=0;exitDy=0;entryX=0.5;entryY=1;entryDx=0;entryDy=0;" parent="1" source="FFNAdtqXyO2KNYmjo27n-57" target="FFNAdtqXyO2KNYmjo27n-54" edge="1">
          <mxGeometry width="50" height="50" relative="1" as="geometry">
            <mxPoint x="3410" y="340" as="sourcePoint" />
            <mxPoint x="3710" y="295" as="targetPoint" />
          </mxGeometry>
        </mxCell>
        <mxCell id="FFNAdtqXyO2KNYmjo27n-117" value="" style="endArrow=none;html=1;rounded=0;exitX=0.5;exitY=0;exitDx=0;exitDy=0;entryX=0.5;entryY=1;entryDx=0;entryDy=0;" parent="1" source="FFNAdtqXyO2KNYmjo27n-58" target="FFNAdtqXyO2KNYmjo27n-55" edge="1">
          <mxGeometry width="50" height="50" relative="1" as="geometry">
            <mxPoint x="3540" y="340" as="sourcePoint" />
            <mxPoint x="3710" y="295" as="targetPoint" />
          </mxGeometry>
        </mxCell>
        <mxCell id="FFNAdtqXyO2KNYmjo27n-118" value="" style="endArrow=none;html=1;rounded=0;exitX=0.5;exitY=0;exitDx=0;exitDy=0;entryX=0.5;entryY=1;entryDx=0;entryDy=0;" parent="1" source="FFNAdtqXyO2KNYmjo27n-59" target="FFNAdtqXyO2KNYmjo27n-55" edge="1">
          <mxGeometry width="50" height="50" relative="1" as="geometry">
            <mxPoint x="3550" y="350" as="sourcePoint" />
            <mxPoint x="3720" y="305" as="targetPoint" />
          </mxGeometry>
        </mxCell>
        <mxCell id="FFNAdtqXyO2KNYmjo27n-119" value="" style="endArrow=none;html=1;rounded=0;entryX=0.5;entryY=1;entryDx=0;entryDy=0;exitX=0.5;exitY=0;exitDx=0;exitDy=0;" parent="1" source="FFNAdtqXyO2KNYmjo27n-63" target="FFNAdtqXyO2KNYmjo27n-57" edge="1">
          <mxGeometry width="50" height="50" relative="1" as="geometry">
            <mxPoint x="3380" y="550" as="sourcePoint" />
            <mxPoint x="3430" y="500" as="targetPoint" />
          </mxGeometry>
        </mxCell>
        <mxCell id="FFNAdtqXyO2KNYmjo27n-120" value="" style="endArrow=none;html=1;rounded=0;entryX=0.5;entryY=1;entryDx=0;entryDy=0;exitX=0.5;exitY=0;exitDx=0;exitDy=0;" parent="1" source="FFNAdtqXyO2KNYmjo27n-64" target="FFNAdtqXyO2KNYmjo27n-58" edge="1">
          <mxGeometry width="50" height="50" relative="1" as="geometry">
            <mxPoint x="3540" y="475" as="sourcePoint" />
            <mxPoint x="3540" y="420" as="targetPoint" />
          </mxGeometry>
        </mxCell>
        <mxCell id="FFNAdtqXyO2KNYmjo27n-121" value="" style="endArrow=none;html=1;rounded=0;entryX=0.5;entryY=1;entryDx=0;entryDy=0;exitX=0.5;exitY=0;exitDx=0;exitDy=0;" parent="1" source="FFNAdtqXyO2KNYmjo27n-65" target="FFNAdtqXyO2KNYmjo27n-59" edge="1">
          <mxGeometry width="50" height="50" relative="1" as="geometry">
            <mxPoint x="3550" y="485" as="sourcePoint" />
            <mxPoint x="3550" y="430" as="targetPoint" />
          </mxGeometry>
        </mxCell>
        <mxCell id="FFNAdtqXyO2KNYmjo27n-122" value="" style="endArrow=none;html=1;rounded=0;entryX=0.5;entryY=1;entryDx=0;entryDy=0;" parent="1" target="FFNAdtqXyO2KNYmjo27n-9" edge="1">
          <mxGeometry width="50" height="50" relative="1" as="geometry">
            <mxPoint x="-550" y="640" as="sourcePoint" />
            <mxPoint x="-560" y="490" as="targetPoint" />
          </mxGeometry>
        </mxCell>
        <mxCell id="FFNAdtqXyO2KNYmjo27n-123" value="" style="endArrow=none;html=1;rounded=0;" parent="1" edge="1">
          <mxGeometry width="50" height="50" relative="1" as="geometry">
            <mxPoint x="-550" y="640" as="sourcePoint" />
            <mxPoint x="130" y="640" as="targetPoint" />
          </mxGeometry>
        </mxCell>
        <mxCell id="FFNAdtqXyO2KNYmjo27n-124" value="" style="endArrow=none;html=1;rounded=0;entryX=0.5;entryY=1;entryDx=0;entryDy=0;" parent="1" target="FFNAdtqXyO2KNYmjo27n-15" edge="1">
          <mxGeometry width="50" height="50" relative="1" as="geometry">
            <mxPoint x="130" y="640" as="sourcePoint" />
            <mxPoint x="150" y="540" as="targetPoint" />
          </mxGeometry>
        </mxCell>
        <mxCell id="FFNAdtqXyO2KNYmjo27n-125" value="" style="endArrow=none;html=1;rounded=0;entryX=0.5;entryY=1;entryDx=0;entryDy=0;" parent="1" target="FFNAdtqXyO2KNYmjo27n-16" edge="1">
          <mxGeometry width="50" height="50" relative="1" as="geometry">
            <mxPoint x="250" y="800" as="sourcePoint" />
            <mxPoint x="240" y="490" as="targetPoint" />
          </mxGeometry>
        </mxCell>
        <mxCell id="FFNAdtqXyO2KNYmjo27n-126" value="" style="endArrow=none;html=1;rounded=0;" parent="1" edge="1">
          <mxGeometry width="50" height="50" relative="1" as="geometry">
            <mxPoint x="250" y="800" as="sourcePoint" />
            <mxPoint x="2520" y="800" as="targetPoint" />
          </mxGeometry>
        </mxCell>
        <mxCell id="FFNAdtqXyO2KNYmjo27n-127" value="" style="endArrow=none;html=1;rounded=0;entryX=0.5;entryY=1;entryDx=0;entryDy=0;" parent="1" target="FFNAdtqXyO2KNYmjo27n-48" edge="1">
          <mxGeometry width="50" height="50" relative="1" as="geometry">
            <mxPoint x="2520" y="800" as="sourcePoint" />
            <mxPoint x="2520" y="620" as="targetPoint" />
          </mxGeometry>
        </mxCell>
        <mxCell id="FFNAdtqXyO2KNYmjo27n-128" value="" style="endArrow=none;html=1;rounded=0;entryX=0.5;entryY=1;entryDx=0;entryDy=0;" parent="1" target="FFNAdtqXyO2KNYmjo27n-26" edge="1">
          <mxGeometry width="50" height="50" relative="1" as="geometry">
            <mxPoint x="1460" y="760" as="sourcePoint" />
            <mxPoint x="1490" y="530" as="targetPoint" />
          </mxGeometry>
        </mxCell>
        <mxCell id="FFNAdtqXyO2KNYmjo27n-129" value="" style="endArrow=none;html=1;rounded=0;entryX=0.5;entryY=1;entryDx=0;entryDy=0;" parent="1" target="FFNAdtqXyO2KNYmjo27n-34" edge="1">
          <mxGeometry width="50" height="50" relative="1" as="geometry">
            <mxPoint x="1630" y="760" as="sourcePoint" />
            <mxPoint x="1660" y="540" as="targetPoint" />
          </mxGeometry>
        </mxCell>
        <mxCell id="FFNAdtqXyO2KNYmjo27n-130" value="" style="endArrow=none;html=1;rounded=0;" parent="1" edge="1">
          <mxGeometry width="50" height="50" relative="1" as="geometry">
            <mxPoint x="1460" y="760" as="sourcePoint" />
            <mxPoint x="3124.2666015625" y="760" as="targetPoint" />
          </mxGeometry>
        </mxCell>
        <mxCell id="FFNAdtqXyO2KNYmjo27n-131" value="" style="endArrow=none;html=1;rounded=0;entryX=0.5;entryY=1;entryDx=0;entryDy=0;" parent="1" target="FFNAdtqXyO2KNYmjo27n-52" edge="1">
          <mxGeometry width="50" height="50" relative="1" as="geometry">
            <mxPoint x="3120" y="760" as="sourcePoint" />
            <mxPoint x="3190" y="630" as="targetPoint" />
          </mxGeometry>
        </mxCell>
        <mxCell id="FFNAdtqXyO2KNYmjo27n-132" value="" style="endArrow=none;html=1;rounded=0;entryX=0.5;entryY=1;entryDx=0;entryDy=0;" parent="1" target="FFNAdtqXyO2KNYmjo27n-53" edge="1">
          <mxGeometry width="50" height="50" relative="1" as="geometry">
            <mxPoint x="3240" y="520" as="sourcePoint" />
            <mxPoint x="3270" y="490" as="targetPoint" />
          </mxGeometry>
        </mxCell>
        <mxCell id="FFNAdtqXyO2KNYmjo27n-133" value="" style="endArrow=none;html=1;rounded=0;" parent="1" edge="1">
          <mxGeometry width="50" height="50" relative="1" as="geometry">
            <mxPoint x="3240" y="520" as="sourcePoint" />
            <mxPoint x="3400" y="520" as="targetPoint" />
          </mxGeometry>
        </mxCell>
        <mxCell id="FFNAdtqXyO2KNYmjo27n-134" value="" style="endArrow=none;html=1;rounded=0;exitX=0.5;exitY=1;exitDx=0;exitDy=0;" parent="1" source="FFNAdtqXyO2KNYmjo27n-56" edge="1">
          <mxGeometry width="50" height="50" relative="1" as="geometry">
            <mxPoint x="3250" y="530" as="sourcePoint" />
            <mxPoint x="3400" y="520" as="targetPoint" />
          </mxGeometry>
        </mxCell>
      </root>
    </mxGraphModel>
  </diagram>
</mxfile>
